<?xml version="1.0" encoding="UTF-8"?>
<svg xmlns="http://www.w3.org/2000/svg" width="1200" height="1600" viewBox="0 0 1200 1600" font-family="Arial, sans-serif">

<!-- Background -->
<rect width="1200" height="1600" fill="#F8F9FA"/>

<!-- ═══════════════════════════════════════════════════════ -->
<!-- TITLE -->
<!-- ═══════════════════════════════════════════════════════ -->
<rect x="40" y="20" width="1120" height="64" rx="10" fill="#1B3A5C" stroke="none"/>
<text x="600" y="45" text-anchor="middle" font-size="20" font-weight="bold" fill="#FFFFFF">Project Sentinel — Low-Level Design (LLD)</text>
<text x="600" y="68" text-anchor="middle" font-size="13" fill="#B5D4F4">Sensor Placement &amp; Log Flow Diagram · FYEP Cybersecurity 2026 · InfraDigital Foundation</text>

<!-- ═══════════════════════════════════════════════════════ -->
<!-- LEGEND -->
<!-- ═══════════════════════════════════════════════════════ -->
<rect x="40" y="96" width="1120" height="52" rx="8" fill="#F1EFE8" stroke="#D3D1C7" stroke-width="1"/>
<text x="70" y="126" font-size="13" font-weight="bold" fill="#444441">Legend:</text>

<!-- Log flow line -->
<line x1="150" y1="122" x2="220" y2="122" stroke="#378ADD" stroke-width="2" stroke-dasharray="8 4"/>
<polygon points="220,118 230,122 220,126" fill="#378ADD"/>
<text x="238" y="127" font-size="12" fill="#444441">Log flow (Wazuh agent / Filebeat / Syslog)</text>

<!-- Active response line -->
<line x1="480" y1="122" x2="550" y2="122" stroke="#1D9E75" stroke-width="2.5"/>
<polygon points="550,118 560,122 550,126" fill="#1D9E75"/>
<text x="568" y="127" font-size="12" fill="#444441">Active response (auto-block)</text>

<!-- Notification line -->
<line x1="780" y1="122" x2="850" y2="122" stroke="#BA7517" stroke-width="2" stroke-dasharray="5 4"/>
<polygon points="850,118 860,122 850,126" fill="#BA7517"/>
<text x="868" y="127" font-size="12" fill="#444441">Notifikasi Telegram</text>

<!-- Internal flow -->
<line x1="1020" y1="122" x2="1090" y2="122" stroke="#888780" stroke-width="1.5"/>
<polygon points="1090,118 1100,122 1090,126" fill="#888780"/>
<text x="1108" y="127" font-size="12" fill="#444441">Internal</text>

<!-- ═══════════════════════════════════════════════════════ -->
<!-- INTERNET ZONE -->
<!-- ═══════════════════════════════════════════════════════ -->
<rect x="40" y="162" width="1120" height="80" rx="10" fill="#F1EFE8" stroke="#B4B2A9" stroke-width="1.5" stroke-dasharray="8 4"/>
<text x="65" y="190" font-size="14" font-weight="bold" fill="#5F5E5A">Internet / External</text>
<text x="65" y="210" font-size="12" fill="#888780">External traffic · Jaringan kampus · Tailscale DERP relay (Tokyo) untuk koneksi antar zona</text>

<!-- Telegram Bot -->
<rect x="940" y="172" width="200" height="60" rx="8" fill="#FAEEDA" stroke="#EF9F27" stroke-width="1.5"/>
<text x="1040" y="196" text-anchor="middle" font-size="13" font-weight="bold" fill="#633806">Telegram Bot</text>
<text x="1040" y="214" text-anchor="middle" font-size="11" fill="#854F0B">Cloud · HTTPS port 443</text>
<text x="1040" y="228" text-anchor="middle" font-size="11" fill="#854F0B">Notifikasi alert SOC team</text>

<!-- Kali Linux Attacker -->
<rect x="700" y="172" width="200" height="60" rx="8" fill="#FCEBEB" stroke="#E24B4A" stroke-width="1.5" stroke-dasharray="6 3"/>
<text x="800" y="196" text-anchor="middle" font-size="13" font-weight="bold" fill="#791F1F">Kali Linux (Attacker)</text>
<text x="800" y="214" text-anchor="middle" font-size="11" fill="#A32D2D">Laptop Yusmadani</text>
<text x="800" y="228" text-anchor="middle" font-size="11" fill="#A32D2D">Tailscale: via nescafe7000@</text>

<!-- ═══════════════════════════════════════════════════════ -->
<!-- DMZ VLAN 30 -->
<!-- ═══════════════════════════════════════════════════════ -->
<rect x="40" y="258" width="1120" height="220" rx="10" fill="#FFF8F0" stroke="#EF9F27" stroke-width="2"/>
<text x="65" y="284" font-size="15" font-weight="bold" fill="#633806">DMZ — VLAN 30</text>
<text x="65" y="304" font-size="12" fill="#854F0B">Subnet: 192.168.30.0/24  ·  Gateway: 192.168.30.1  ·  Zona penyangga antara internet dan jaringan internal</text>

<!-- pfSense -->
<rect x="65" y="316" width="300" height="144" rx="8" fill="#F1EFE8" stroke="#888780" stroke-width="1.5"/>
<rect x="65" y="316" width="300" height="32" rx="8" fill="#444441"/>
<rect x="65" y="332" width="300" height="16" fill="#444441"/>
<text x="215" y="338" text-anchor="middle" font-size="14" font-weight="bold" fill="#FFFFFF">pfSense 2.8.1</text>
<text x="215" y="360" text-anchor="middle" font-size="12" fill="#5F5E5A">Firewall / Router / NAT</text>
<text x="215" y="378" text-anchor="middle" font-size="12" fill="#5F5E5A">WAN (em0): 192.168.229.134/24</text>
<text x="215" y="396" text-anchor="middle" font-size="12" fill="#5F5E5A">VLAN10 (em1): 192.168.10.2/24</text>
<text x="215" y="414" text-anchor="middle" font-size="12" fill="#5F5E5A">VLAN20 (em2): 192.168.20.1/24</text>
<text x="215" y="432" text-anchor="middle" font-size="12" fill="#5F5E5A">VLAN30 (em3): 192.168.30.1/24</text>
<text x="215" y="450" text-anchor="middle" font-size="11" fill="#888780">pfSense API: HTTPS · VMnet2/3/4</text>

<!-- Honeypot -->
<rect x="415" y="316" width="340" height="144" rx="8" fill="#FFF0EC" stroke="#D85A30" stroke-width="1.5"/>
<rect x="415" y="316" width="340" height="32" rx="8" fill="#993C1D"/>
<rect x="415" y="332" width="340" height="16" fill="#993C1D"/>
<text x="585" y="338" text-anchor="middle" font-size="14" font-weight="bold" fill="#FFFFFF">Honeypot Server ★ Inovasi</text>
<text x="585" y="360" text-anchor="middle" font-size="12" fill="#5F5E5A">Cowrie (SSH/Telnet) + OpenCanary (HTTP/SMB)</text>
<text x="585" y="378" text-anchor="middle" font-size="12" fill="#5F5E5A">Azure Public IP: 20.196.144.29</text>
<text x="585" y="396" text-anchor="middle" font-size="12" fill="#5F5E5A">Tailscale IP: 100.71.170.81</text>
<text x="585" y="414" text-anchor="middle" font-size="12" fill="#5F5E5A">SSH: TCP 22 · HTTP: TCP 80</text>
<text x="585" y="432" text-anchor="middle" font-size="12" fill="#5F5E5A">Log: /var/log/cowrie/cowrie.json</text>
<text x="585" y="450" text-anchor="middle" font-size="11" fill="#888780">Forward log → Filebeat → Wazuh TCP 5044</text>

<!-- VPN Gateway -->
<rect x="805" y="316" width="330" height="144" rx="8" fill="#F1EFE8" stroke="#888780" stroke-width="1.5"/>
<rect x="805" y="316" width="330" height="32" rx="8" fill="#444441"/>
<rect x="805" y="332" width="330" height="16" fill="#444441"/>
<text x="970" y="338" text-anchor="middle" font-size="14" font-weight="bold" fill="#FFFFFF">VPN Gateway</text>
<text x="970" y="360" text-anchor="middle" font-size="12" fill="#5F5E5A">OpenVPN + MFA (Google Authenticator)</text>
<text x="970" y="378" text-anchor="middle" font-size="12" fill="#5F5E5A">Protokol: UDP 1194 (OpenVPN)</text>
<text x="970" y="396" text-anchor="middle" font-size="12" fill="#5F5E5A">MFA: TOTP (Time-based OTP)</text>
<text x="970" y="414" text-anchor="middle" font-size="12" fill="#5F5E5A">Mitigasi: Colonial Pipeline VPN gap</text>
<text x="970" y="432" text-anchor="middle" font-size="12" fill="#5F5E5A">Auth log → Wazuh (rule T1078)</text>
<text x="970" y="450" text-anchor="middle" font-size="11" fill="#888780">Akses karyawan remote ke VLAN10</text>

<!-- ═══════════════════════════════════════════════════════ -->
<!-- LAN PRODUKSI VLAN 10 -->
<!-- ═══════════════════════════════════════════════════════ -->
<rect x="40" y="494" width="1120" height="340" rx="10" fill="#F2F8EC" stroke="#639922" stroke-width="2"/>
<text x="65" y="520" font-size="15" font-weight="bold" fill="#3B6D11">LAN Produksi — VLAN 10</text>
<text x="65" y="540" font-size="12" fill="#639922">Subnet: 192.168.10.0/24  ·  Gateway: 192.168.10.2  ·  Endpoint pengguna dan server produksi</text>

<!-- Windows Endpoint -->
<rect x="65" y="554" width="340" height="260" rx="8" fill="#EBF3FC" stroke="#378ADD" stroke-width="1.5"/>
<rect x="65" y="554" width="340" height="32" rx="8" fill="#185FA5"/>
<rect x="65" y="570" width="340" height="16" fill="#185FA5"/>
<text x="235" y="576" text-anchor="middle" font-size="14" font-weight="bold" fill="#FFFFFF">Windows Endpoint</text>
<text x="235" y="600" text-anchor="middle" font-size="12" fill="#444441">IP: 192.168.10.20  ·  User: fyep-2</text>
<text x="235" y="618" text-anchor="middle" font-size="12" fill="#444441">OS: Windows 10 Pro</text>
<!-- Wazuh Agent box -->
<rect x="80" y="628" width="310" height="52" rx="6" fill="#D5E8F5" stroke="#378ADD" stroke-width="1"/>
<text x="235" y="648" text-anchor="middle" font-size="12" font-weight="bold" fill="#0C447C">Wazuh Agent</text>
<text x="235" y="664" text-anchor="middle" font-size="11" fill="#185FA5">Kirim log → Wazuh Manager · TCP 1514</text>
<text x="235" y="678" text-anchor="middle" font-size="11" fill="#185FA5">Terenkripsi · Real-time</text>
<!-- Canary Token box -->
<rect x="80" y="690" width="310" height="36" rx="6" fill="#FCEBEB" stroke="#E24B4A" stroke-width="1"/>
<text x="235" y="704" text-anchor="middle" font-size="12" font-weight="bold" fill="#791F1F">Canary Token</text>
<text x="235" y="720" text-anchor="middle" font-size="11" fill="#A32D2D">C:\Users\fyep-2\Documents\credentials.xlsx</text>
<!-- Monitoring detail -->
<text x="235" y="748" text-anchor="middle" font-size="11" fill="#5F5E5A">FIM: C:\Windows\System32</text>
<text x="235" y="764" text-anchor="middle" font-size="11" fill="#5F5E5A">Event ID: 4625, 4688, 4648 (Pass-the-Hash)</text>
<text x="235" y="780" text-anchor="middle" font-size="11" fill="#5F5E5A">Process monitoring: PowerShell anomali</text>
<text x="235" y="796" text-anchor="middle" font-size="11" fill="#5F5E5A">RDP: TCP 3389  ·  SSH: TCP 22</text>
<!-- MITRE tags -->
<text x="235" y="816" text-anchor="middle" font-size="10" fill="#888780">MITRE: T1110 · T1003 · T1550 · T1059 · T1486</text>

<!-- Linux Endpoint -->
<rect x="435" y="554" width="340" height="260" rx="8" fill="#EBF6EC" stroke="#639922" stroke-width="1.5"/>
<rect x="435" y="554" width="340" height="32" rx="8" fill="#3B6D11"/>
<rect x="435" y="570" width="340" height="16" fill="#3B6D11"/>
<text x="605" y="576" text-anchor="middle" font-size="14" font-weight="bold" fill="#FFFFFF">Linux Endpoint + Production Server</text>
<text x="605" y="600" text-anchor="middle" font-size="12" fill="#444441">IP: 192.168.10.30  ·  User: fyep-1</text>
<text x="605" y="618" text-anchor="middle" font-size="12" fill="#444441">OS: Ubuntu Server 22.04 LTS</text>
<!-- Wazuh Agent box -->
<rect x="450" y="628" width="310" height="52" rx="6" fill="#C0E6C8" stroke="#639922" stroke-width="1"/>
<text x="605" y="648" text-anchor="middle" font-size="12" font-weight="bold" fill="#27500A">Wazuh Agent</text>
<text x="605" y="664" text-anchor="middle" font-size="11" fill="#3B6D11">Kirim log → Wazuh Manager · TCP 1514</text>
<text x="605" y="678" text-anchor="middle" font-size="11" fill="#3B6D11">auditd · syslog · auth.log</text>
<!-- Canary Token box -->
<rect x="450" y="690" width="310" height="36" rx="6" fill="#FCEBEB" stroke="#E24B4A" stroke-width="1"/>
<text x="605" y="704" text-anchor="middle" font-size="12" font-weight="bold" fill="#791F1F">Canary Token</text>
<text x="605" y="720" text-anchor="middle" font-size="11" fill="#A32D2D">/etc/db_passwords.conf</text>
<!-- Monitoring detail -->
<text x="605" y="748" text-anchor="middle" font-size="11" fill="#5F5E5A">FIM: /etc · /bin · /var/db/production</text>
<text x="605" y="764" text-anchor="middle" font-size="11" fill="#5F5E5A">Ransomware threshold: &gt;50 file/menit → CRITICAL</text>
<text x="605" y="780" text-anchor="middle" font-size="11" fill="#5F5E5A">Web server log: Log4Shell detection (${jndi:})</text>
<text x="605" y="796" text-anchor="middle" font-size="11" fill="#5F5E5A">SSH: TCP 22  ·  HTTP: TCP 80</text>
<!-- MITRE tags -->
<text x="605" y="816" text-anchor="middle" font-size="10" fill="#888780">MITRE: T1110 · T1190 · T1486 · T1021</text>

<!-- IP Scheme Table -->
<rect x="805" y="554" width="330" height="260" rx="8" fill="#FFFFFF" stroke="#D3D1C7" stroke-width="1.5"/>
<rect x="805" y="554" width="330" height="32" rx="8" fill="#5F5E5A"/>
<rect x="805" y="570" width="330" height="16" fill="#5F5E5A"/>
<text x="970" y="576" text-anchor="middle" font-size="13" font-weight="bold" fill="#FFFFFF">IP Scheme — Semua Komponen</text>
<text x="820" y="604" font-size="11" font-weight="bold" fill="#444441">Komponen</text>
<text x="1000" y="604" font-size="11" font-weight="bold" fill="#444441">IP Address</text>
<line x1="815" y1="610" x2="1125" y2="610" stroke="#D3D1C7" stroke-width="0.5"/>
<text x="820" y="626" font-size="11" fill="#5F5E5A">pfSense LAN</text>
<text x="1000" y="626" font-size="11" fill="#185FA5">192.168.10.2</text>
<text x="820" y="644" font-size="11" fill="#5F5E5A">pfSense MGMT</text>
<text x="1000" y="644" font-size="11" fill="#185FA5">192.168.20.1</text>
<text x="820" y="662" font-size="11" fill="#5F5E5A">pfSense DMZ</text>
<text x="1000" y="662" font-size="11" fill="#185FA5">192.168.30.1</text>
<text x="820" y="680" font-size="11" fill="#5F5E5A">pfSense WAN</text>
<text x="1000" y="680" font-size="11" fill="#185FA5">192.168.229.134 (DHCP)</text>
<line x1="815" y1="688" x2="1125" y2="688" stroke="#D3D1C7" stroke-width="0.5"/>
<text x="820" y="704" font-size="11" fill="#5F5E5A">Ubuntu (temp GUI)</text>
<text x="1000" y="704" font-size="11" fill="#185FA5">192.168.10.10</text>
<text x="820" y="722" font-size="11" fill="#5F5E5A">Windows Endpoint</text>
<text x="1000" y="722" font-size="11" fill="#185FA5">192.168.10.20</text>
<text x="820" y="740" font-size="11" fill="#5F5E5A">Linux Endpoint</text>
<text x="1000" y="740" font-size="11" fill="#185FA5">192.168.10.30</text>
<line x1="815" y1="748" x2="1125" y2="748" stroke="#D3D1C7" stroke-width="0.5"/>
<text x="820" y="764" font-size="11" fill="#5F5E5A">Wazuh SIEM</text>
<text x="1000" y="764" font-size="11" fill="#185FA5">72.155.88.10 / 100.87.181.20</text>
<text x="820" y="782" font-size="11" fill="#5F5E5A">Honeypot</text>
<text x="1000" y="782" font-size="11" fill="#D85A30">20.196.144.29 / 100.71.170.81</text>
<line x1="815" y1="790" x2="1125" y2="790" stroke="#D3D1C7" stroke-width="0.5"/>
<text x="820" y="806" font-size="11" fill="#5F5E5A">Tailscale PC Lab</text>
<text x="1000" y="806" font-size="11" fill="#185FA5">100.101.161.92</text>

<!-- ═══════════════════════════════════════════════════════ -->
<!-- MANAGEMENT NETWORK VLAN 20 -->
<!-- ═══════════════════════════════════════════════════════ -->
<rect x="40" y="850" width="1120" height="480" rx="10" fill="#EBF2FB" stroke="#378ADD" stroke-width="2"/>
<text x="65" y="876" font-size="15" font-weight="bold" fill="#0C447C">Management Network — VLAN 20</text>
<text x="65" y="896" font-size="12" fill="#185FA5">Azure Public: 72.155.88.10  ·  Tailscale: 100.87.181.20  ·  User: dea-2  ·  Infrastruktur monitoring terpusat</text>

<!-- Wazuh Manager -->
<rect x="65" y="910" width="300" height="200" rx="8" fill="#E6F1FB" stroke="#185FA5" stroke-width="1.5"/>
<rect x="65" y="910" width="300" height="32" rx="8" fill="#0C447C"/>
<rect x="65" y="926" width="300" height="16" fill="#0C447C"/>
<text x="215" y="932" text-anchor="middle" font-size="14" font-weight="bold" fill="#FFFFFF">Wazuh Manager</text>
<text x="215" y="956" text-anchor="middle" font-size="12" fill="#444441">Wazuh 4.x All-in-One</text>
<text x="215" y="974" text-anchor="middle" font-size="12" fill="#444441">Azure: 72.155.88.10</text>
<text x="215" y="992" text-anchor="middle" font-size="12" fill="#444441">Agent listener: TCP/UDP 1514</text>
<text x="215" y="1010" text-anchor="middle" font-size="12" fill="#444441">Syslog receiver: UDP 514</text>
<text x="215" y="1028" text-anchor="middle" font-size="12" fill="#444441">Filebeat receiver: TCP 5044</text>
<text x="215" y="1046" text-anchor="middle" font-size="12" fill="#444441">API: TCP 55000</text>
<text x="215" y="1064" text-anchor="middle" font-size="11" fill="#888780">Proses: rule matching, alert, AR</text>
<text x="215" y="1082" text-anchor="middle" font-size="11" fill="#888780">Config: /var/ossec/etc/ossec.conf</text>
<text x="215" y="1100" text-anchor="middle" font-size="11" fill="#888780">Rules: /var/ossec/etc/rules/</text>

<!-- Wazuh Indexer -->
<rect x="415" y="910" width="280" height="200" rx="8" fill="#E6F1FB" stroke="#185FA5" stroke-width="1.5"/>
<rect x="415" y="910" width="280" height="32" rx="8" fill="#0C447C"/>
<rect x="415" y="926" width="280" height="16" fill="#0C447C"/>
<text x="555" y="932" text-anchor="middle" font-size="14" font-weight="bold" fill="#FFFFFF">Wazuh Indexer</text>
<text x="555" y="956" text-anchor="middle" font-size="12" fill="#444441">OpenSearch (Elasticsearch)</text>
<text x="555" y="974" text-anchor="middle" font-size="12" fill="#444441">REST API: TCP 9200</text>
<text x="555" y="992" text-anchor="middle" font-size="12" fill="#444441">Cluster: TCP 9300</text>
<text x="555" y="1010" text-anchor="middle" font-size="12" fill="#444441">Transport: TCP 9600</text>
<text x="555" y="1028" text-anchor="middle" font-size="12" fill="#444441">Storage: semua alert + log</text>
<text x="555" y="1046" text-anchor="middle" font-size="12" fill="#444441">Index: wazuh-alerts-*</text>
<text x="555" y="1064" text-anchor="middle" font-size="11" fill="#888780">Data dir: /var/lib/wazuh-indexer</text>
<text x="555" y="1082" text-anchor="middle" font-size="11" fill="#888780">Retention: configurable</text>

<!-- Wazuh Dashboard -->
<rect x="745" y="910" width="400" height="200" rx="8" fill="#E6F1FB" stroke="#185FA5" stroke-width="1.5"/>
<rect x="745" y="910" width="400" height="32" rx="8" fill="#0C447C"/>
<rect x="745" y="926" width="400" height="16" fill="#0C447C"/>
<text x="945" y="932" text-anchor="middle" font-size="14" font-weight="bold" fill="#FFFFFF">Wazuh Dashboard (Kibana-based)</text>
<text x="945" y="956" text-anchor="middle" font-size="12" fill="#444441">HTTPS: TCP 443</text>
<text x="945" y="974" text-anchor="middle" font-size="12" fill="#444441">User: dea-2 · URL: https://72.155.88.10</text>
<text x="945" y="992" text-anchor="middle" font-size="12" fill="#444441">Panel: Security Events · MITRE ATT&amp;CK</text>
<text x="945" y="1010" text-anchor="middle" font-size="12" fill="#444441">Panel: Vulnerability Detection · Agents</text>
<text x="945" y="1028" text-anchor="middle" font-size="12" fill="#444441">Panel: Honeypot interactions</text>
<text x="945" y="1046" text-anchor="middle" font-size="12" fill="#444441">Panel: File Integrity Monitoring</text>
<text x="945" y="1064" text-anchor="middle" font-size="11" fill="#888780">Auto-refresh: 30 detik</text>
<text x="945" y="1082" text-anchor="middle" font-size="11" fill="#888780">Config: /etc/wazuh-dashboard/</text>

<!-- Active Response -->
<rect x="65" y="1130" width="360" height="172" rx="8" fill="#E1F5EE" stroke="#1D9E75" stroke-width="1.5"/>
<rect x="65" y="1130" width="360" height="32" rx="8" fill="#0F6E56"/>
<rect x="65" y="1146" width="360" height="16" fill="#0F6E56"/>
<text x="245" y="1152" text-anchor="middle" font-size="14" font-weight="bold" fill="#FFFFFF">Active Response ★ Inovasi SOAR</text>
<text x="245" y="1176" text-anchor="middle" font-size="12" fill="#444441">Script: Python / Bash</text>
<text x="245" y="1194" text-anchor="middle" font-size="12" fill="#444441">Lokasi: /var/ossec/active-response/bin/</text>
<text x="245" y="1212" text-anchor="middle" font-size="12" fill="#444441">Trigger: alert level ≥ 10</text>
<text x="245" y="1230" text-anchor="middle" font-size="12" fill="#444441">Aksi 1: pfSense API → block IP (HTTPS)</text>
<text x="245" y="1248" text-anchor="middle" font-size="12" fill="#444441">Aksi 2: Telegram bot → kirim notifikasi</text>
<text x="245" y="1266" text-anchor="middle" font-size="12" fill="#444441">Response time: &lt; 30 detik end-to-end</text>
<text x="245" y="1284" text-anchor="middle" font-size="11" fill="#888780">Config: /var/ossec/etc/ossec.conf (active-response)</text>

<!-- Custom Rules -->
<rect x="455" y="1130" width="340" height="172" rx="8" fill="#EEEDFE" stroke="#534AB7" stroke-width="1.5"/>
<rect x="455" y="1130" width="340" height="32" rx="8" fill="#3C3489"/>
<rect x="455" y="1146" width="340" height="16" fill="#3C3489"/>
<text x="625" y="1152" text-anchor="middle" font-size="14" font-weight="bold" fill="#FFFFFF">Custom Detection Rules</text>
<text x="625" y="1176" text-anchor="middle" font-size="11" fill="#5F5E5A">T1110 — Brute force SSH/RDP (&gt;5 fail/60s)</text>
<text x="625" y="1194" text-anchor="middle" font-size="11" fill="#5F5E5A">T1059 — PowerShell encoded (-EncodedCommand)</text>
<text x="625" y="1212" text-anchor="middle" font-size="11" fill="#5F5E5A">T1003 — lsass.exe access (Mimikatz)</text>
<text x="625" y="1230" text-anchor="middle" font-size="11" fill="#5F5E5A">T1550 — Pass-the-Hash lateral movement</text>
<text x="625" y="1248" text-anchor="middle" font-size="11" fill="#5F5E5A">T1078 — Admin login 22:00–06:00 WIB</text>
<text x="625" y="1266" text-anchor="middle" font-size="11" fill="#5F5E5A">T1190 — ${jndi:} Log4Shell payload</text>
<text x="625" y="1284" text-anchor="middle" font-size="11" fill="#5F5E5A">T1486 — FIM: &gt;50 file/mnt (ransomware)</text>

<!-- Admin Workstation -->
<rect x="825" y="1130" width="320" height="172" rx="8" fill="#F1EFE8" stroke="#888780" stroke-width="1.5"/>
<rect x="825" y="1130" width="320" height="32" rx="8" fill="#5F5E5A"/>
<rect x="825" y="1146" width="320" height="16" fill="#5F5E5A"/>
<text x="985" y="1152" text-anchor="middle" font-size="14" font-weight="bold" fill="#FFFFFF">Admin Workstation / SOC</text>
<text x="985" y="1176" text-anchor="middle" font-size="12" fill="#444441">Akses via Tailscale (nescafe7000@)</text>
<text x="985" y="1194" text-anchor="middle" font-size="12" fill="#444441">Dashboard: https://72.155.88.10</text>
<text x="985" y="1212" text-anchor="middle" font-size="12" fill="#444441">SSH ke Wazuh: TCP 22</text>
<text x="985" y="1230" text-anchor="middle" font-size="12" fill="#444441">pfSense GUI: http://192.168.10.2</text>
<text x="985" y="1248" text-anchor="middle" font-size="12" fill="#444441">Windows RDP: 192.168.10.20:3389</text>
<text x="985" y="1266" text-anchor="middle" font-size="12" fill="#444441">Linux SSH: 192.168.10.30:22</text>
<text x="985" y="1284" text-anchor="middle" font-size="11" fill="#888780">Anggota: Dea, Rafli, Romadhona, Triyas</text>

<!-- ═══════════════════════════════════════════════════════ -->
<!-- LOG FLOW ARROWS -->
<!-- ═══════════════════════════════════════════════════════ -->

<!-- pfSense → Wazuh Manager (syslog UDP 514) -->
<path d="M215 460 L215 476 L30 476 L30 1010 L65 1010" stroke="#378ADD" stroke-width="2" stroke-dasharray="8 4" fill="none"/>
<polygon points="65,1006 75,1010 65,1014" fill="#378ADD"/>
<text x="36" y="740" font-size="11" fill="#185FA5" transform="rotate(-90 36 740)">syslog · UDP 514</text>

<!-- Windows → Wazuh Manager (agent TCP 1514) -->
<path d="M235 814 L235 836 L20 836 L20 1030 L65 1030" stroke="#378ADD" stroke-width="2" stroke-dasharray="8 4" fill="none"/>
<polygon points="65,1026 75,1030 65,1034" fill="#378ADD"/>

<!-- Linux → Wazuh Manager (agent TCP 1514) -->
<path d="M605 814 L605 836 L20 836" stroke="#378ADD" stroke-width="2" stroke-dasharray="8 4" fill="none"/>

<!-- Label TCP 1514 -->
<text x="340" y="832" font-size="11" fill="#185FA5">Wazuh Agent · TCP 1514 (terenkripsi)</text>

<!-- Honeypot → Wazuh Manager (Filebeat TCP 5044) -->
<path d="M585 460 L585 480 L1150 480 L1150 1020 L365 1020" stroke="#D85A30" stroke-width="2" stroke-dasharray="6 4" fill="none"/>
<polygon points="365,1016 375,1020 365,1024" fill="#D85A30"/>
<text x="900" y="476" font-size="11" fill="#D85A30">Filebeat · TCP 5044 · via Tailscale tunnel</text>

<!-- Wazuh Manager → Wazuh Indexer -->
<line x1="365" y1="1010" x2="415" y2="1010" stroke="#378ADD" stroke-width="2" fill="none"/>
<polygon points="415,1006 425,1010 415,1014" fill="#378ADD"/>
<text x="370" y="1004" font-size="10" fill="#185FA5">TCP 9200</text>

<!-- Wazuh Indexer → Wazuh Dashboard -->
<line x1="695" y1="1010" x2="745" y2="1010" stroke="#378ADD" stroke-width="2" fill="none"/>
<polygon points="745,1006 755,1010 745,1014" fill="#378ADD"/>
<text x="700" y="1004" font-size="10" fill="#185FA5">TCP 443</text>

<!-- Wazuh Manager → Active Response (trigger) -->
<line x1="215" y1="1110" x2="215" y2="1130" stroke="#1D9E75" stroke-width="2.5" fill="none"/>
<polygon points="211,1130 215,1140 219,1130" fill="#1D9E75"/>
<text x="220" y="1122" font-size="10" fill="#0F6E56">trigger level 10+</text>

<!-- Active Response → pfSense (auto-block) -->
<path d="M65 1216 L40 1216 L40 388 L65 388" stroke="#1D9E75" stroke-width="2.5" fill="none"/>
<polygon points="65,384 75,388 65,392" fill="#1D9E75"/>
<text x="45" y="810" font-size="11" fill="#0F6E56" transform="rotate(-90 45 810)">auto-block · pfSense API · HTTPS</text>

<!-- Active Response → Telegram (notifikasi) -->
<path d="M425 1216 L1180 1216 L1180 202 L1140 202" stroke="#BA7517" stroke-width="2" stroke-dasharray="5 4" fill="none"/>
<polygon points="1140,198 1150,202 1140,206" fill="#BA7517"/>
<text x="1182" y="710" font-size="11" fill="#854F0B" transform="rotate(-90 1182 710)">alert · HTTPS 443 · Telegram API</text>

<!-- Admin Workstation → Dashboard -->
<line x1="985" y1="1130" x2="985" y2="1110" stroke="#888780" stroke-width="1.5" fill="none"/>
<polygon points="981,1110 985,1100 989,1110" fill="#888780"/>

<!-- ═══════════════════════════════════════════════════════ -->
<!-- FOOTER -->
<!-- ═══════════════════════════════════════════════════════ -->
<rect x="40" y="1330" width="1120" height="44" rx="8" fill="#F1EFE8" stroke="#D3D1C7" stroke-width="0.5"/>
<text x="60" y="1348" font-size="12" fill="#888780">Project Sentinel · FYEP Cybersecurity 2026 · InfraDigital Foundation</text>
<text x="60" y="1364" font-size="12" fill="#888780">Dibuat: Dea Kristin Ginting (PM) · Diverifikasi oleh: Triyas Niko Saputra (Network Engineer)</text>
<text x="1140" y="1348" text-anchor="end" font-size="12" fill="#888780">Versi: 1.0</text>
<text x="1140" y="1364" text-anchor="end" font-size="12" fill="#888780">22 Mei 2026</text>

<!-- Attacker simulation arrows (dashed red) -->
<path d="M800 202 L800 570 L435 570" stroke="#E24B4A" stroke-width="1.5" stroke-dasharray="6 4" fill="none"/>
<polygon points="435,566 445,570 435,574" fill="#E24B4A"/>
<text x="620" y="562" font-size="10" fill="#A32D2D">simulasi serangan Minggu 3</text>

<path d="M800 232 L800 250 L235 250 L235 554" stroke="#E24B4A" stroke-width="1.5" stroke-dasharray="6 4" fill="none"/>
<polygon points="231,554 235,564 239,554" fill="#E24B4A"/>

</svg>
